<svg version="1.1" viewBox="0 0 50 50" xmlns="http://www.w3.org/2000/svg">
 <path d="m43.2 2.5c-0.225-0.0175-0.459 0.0434-0.651 0.185l-29.7 21.5c-0.343 0.249-0.487 0.693-0.357 1.1 0.131 0.403 0.508 0.676 0.931 0.676h7.11l-14.4 20c-0.28 0.389-0.237 0.924 0.103 1.26 0.189 0.188 0.441 0.286 0.69 0.286 0.201 0 0.403-0.0613 0.574-0.186l29.7-21.5c0.343-0.249 0.487-0.69 0.357-1.09-0.131-0.403-0.508-0.676-0.931-0.676h-7.11l14.4-20c0.28-0.389 0.235-0.924-0.105-1.26-0.17-0.169-0.389-0.265-0.613-0.282zm-38.2 3.57a0.697 0.697 0 0 0 0.0686 1.39h25.7a0.695 0.695 0 1 0 0-1.39h-25.7a0.693 0.693 0 0 0-0.0686 0zm33.9 1.76-11.9 16.6c-0.214 0.298-0.243 0.693-0.076 1.02 0.167 0.327 0.504 0.529 0.872 0.529h6.02l-22.3 16.2 11.9-16.6c0.214-0.298 0.243-0.69 0.076-1.02-0.167-0.327-0.504-0.532-0.872-0.532h-6.02zm-33.9 2.19a0.694 0.694 0 0 0 0.0686 1.39h20.2a0.693 0.693 0 1 0 0-1.39h-20.2a0.693 0.693 0 0 0-0.0686 0zm0.0816 3.92a0.694 0.694 0 0 0 0.0686 1.39h15a0.693 0.693 0 1 0 0-1.39h-15a0.693 0.693 0 0 0-0.0686 0zm0.0833 3.96a0.694 0.694 0 0 0 0.0686 1.39h10.7a0.693 0.693 0 1 0 0-1.39h-10.7a0.693 0.693 0 0 0-0.0686 0zm28.7 14.8a0.697 0.697 0 0 0 0.0686 1.39h10.7a0.695 0.695 0 1 0 0-1.39h-10.7a0.693 0.693 0 0 0-0.0686 0zm-4.13 3.92a0.697 0.697 0 1 0 0 1.39h15a0.697 0.697 0 0 0 0-1.39zm-5.18 3.96a0.694 0.694 0 0 0 0.0686 1.39h20.2a0.693 0.693 0 1 0 0-1.39h-20.2a0.693 0.693 0 0 0-0.0686 0zm-5.46 3.92a0.697 0.697 0 1 0 0 1.39h25.7a0.697 0.697 0 1 0 0-1.39z" fill="#ddd" stroke="#ddd" stroke-width="0"/>
</svg>
