<svg version="1.1" viewBox="0 0 50 50" xmlns="http://www.w3.org/2000/svg">
 <path d="m15.5 2.95c-2.36 0-4.3 1.94-4.3 4.3v35.5c0 2.36 1.94 4.3 4.3 4.3h18.4c-0.461-0.185-0.908-0.441-1.31-0.807-0.436-0.391-0.781-0.914-1.03-1.48-0.579 0.225-1.19 0.354-1.78 0.324-1.04-0.0529-1.91-0.461-2.61-1.04h-11.7c-0.746 0-1.3-0.554-1.3-1.3v-35.5c0-0.746 0.554-1.3 1.3-1.3h19.1c0.746 0 1.3 0.554 1.3 1.3v15.2c1.17 0.0596 2.23 0.591 3 1.41v-16.6c0-2.36-1.94-4.3-4.3-4.3h-19.1zm20.3 22.6a1.5 1.5 0 0 0-1.48 1.52v4.34l-3.07-3.07a1.5 1.5 0 0 0-1.08-0.455 1.5 1.5 0 0 0-1.04 2.58l3.07 3.07h-4.34a1.5 1.5 0 1 0 0 3h4.34l-3.07 3.07a1.5 1.5 0 1 0 2.12 2.12l3.07-3.07v4.34a1.5 1.5 0 1 0 3 0v-4.34l3.07 3.07a1.5 1.5 0 1 0 2.12-2.12l-3.07-3.07h4.34a1.5 1.5 0 1 0 0-3h-4.34l3.07-3.07a1.5 1.5 0 0 0-1.09-2.57 1.5 1.5 0 0 0-1.03 0.453l-3.07 3.07v-4.34a1.5 1.5 0 0 0-1.52-1.52z" fill="#ddd" stroke="#ddd" stroke-width="0"/>
</svg>
