<svg version="1.1" viewBox="0 0 50 50" xmlns="http://www.w3.org/2000/svg">
 <path d="m15.5 2.95c-2.36 0-4.3 1.94-4.3 4.3v35.5c0 2.36 1.94 4.3 4.3 4.3h19.1c1.4 0 2.64-0.692 3.42-1.74-0.767-0.709-1.48-1.49-2.15-2.28-0.123 0.596-0.623 1.01-1.27 1.01h-19.1c-0.746 0-1.3-0.554-1.3-1.3v-35.5c0-0.746 0.554-1.3 1.3-1.3h19.1c0.746 0 1.3 0.554 1.3 1.3v11c0.29 0.194 0.573 0.399 0.846 0.617 0.863 0.589 1.57 1.26 2.15 2.01v-13.6c0-2.36-1.94-4.3-4.3-4.3h-19.1zm13.7 17.3c-2.23 1e-6 -4.26 0.913-5.73 2.38-1.47 1.47-2.38 3.5-2.38 5.73 1e-6 4.47 3.65 8.12 8.12 8.12 1.69-1e-6 3.27-0.528 4.57-1.42l8.82 8.82a1.5 1.5 0 1 0 2.12-2.12l-8.82-8.82c0.896-1.31 1.42-2.88 1.42-4.58-1e-6 -4.47-3.65-8.12-8.12-8.12zm0 3c2.85-1e-6 5.12 2.27 5.12 5.12 0 1.4-0.558 2.67-1.46 3.59a1.5 1.5 0 0 0-0.0781 0.0762c-0.921 0.9-2.18 1.46-3.58 1.46-2.85 1e-6 -5.12-2.28-5.12-5.12 0-1.42 0.568-2.7 1.49-3.63 0.924-0.924 2.2-1.49 3.63-1.49z" fill="#ddd" stroke="#ddd" stroke-width="0"/>
</svg>
