<?xml version="1.0" encoding="UTF-8" standalone="no"?>
<svg
   xmlns:svg="http://www.w3.org/2000/svg"
   xmlns="http://www.w3.org/2000/svg"
   width="32px"
   height="32px"
   viewBox="0 0 32 32"
   version="1.1">
  <path
     d="M 15.999693,-5.872539e-7 C 7.1774868,-5.872539e-7 8.333333e-7,7.1776077 8.333333e-7,15.999994 8.333333e-7,24.822368 7.1774868,32 15.999693,32 24.821897,32 32.000001,24.822368 32.000001,15.999994 32.000001,7.1776077 24.821897,-5.872539e-7 15.999693,-5.872539e-7 Z m 0,1.5254053872539 c 7.994191,0 14.47431,6.4802521 14.474298,14.4745892 0,7.994034 -6.480107,14.474588 -14.474298,14.474588 -7.9938767,0 -14.474306,-6.480554 -14.474306,-14.474588 0,-7.9940229 6.4804283,-14.4745892 14.474306,-14.4745892 z M 11.1618,7.8244571 c -0.193052,-0.00243 -0.378896,-0.00243 -0.563422,0.00726 C 9.2877549,7.9056129 8.49992,8.5208473 8.284684,9.794397 8.1311688,10.680294 8.155886,11.590949 8.0941654,12.48293 c -0.018226,0.467585 -0.067935,0.929147 -0.1542883,1.384239 -0.1784575,0.812048 -0.5284901,1.064363 -1.3529828,1.107516 -0.1106642,0.01221 -0.2154016,0.03096 -0.3260636,0.05564 v 1.950176 c 1.5009082,0.0739 1.7039599,0.602874 1.8270882,2.171952 0.042863,0.572167 -0.018358,1.144393 0.018736,1.716559 0.024309,0.541471 0.097663,1.076845 0.2086346,1.599738 0.3447658,1.433476 1.7418375,1.913252 3.4336865,1.624121 v -1.71032 c -0.271218,0 -0.510786,0.006 -0.744573,0 -0.572492,-0.01826 -0.787956,-0.160361 -0.843288,-0.713974 -0.0739,-0.713526 -0.05491,-1.439522 -0.09797,-2.159446 C 9.9770325,18.173862 9.8291772,16.857667 8.5246391,16.00855 9.194976,15.516328 9.6813113,14.9259 9.8351448,14.144559 c 0.1106646,-0.547542 0.1785822,-1.095156 0.2217592,-1.649108 0.03653,-0.553625 -0.0312,-1.11966 0.01814,-1.667201 0.07994,-0.8859097 0.135591,-1.2489501 1.199956,-1.2118442 0.1599,0 0.313755,-0.024431 0.492221,-0.036888 V 7.831714 c -0.212198,0 -0.412241,-0.00484 -0.605293,-0.00726 z m 10.124273,0.012095 c -0.336069,-0.00968 -0.699049,0.017176 -1.084391,0.08067 v 1.6984293 c 0.325909,0 0.578455,-4.164e-4 0.830782,0.00605 0.436877,0.00605 0.769185,0.1729032 0.812036,0.6590176 0.04318,0.44296 0.04306,0.891787 0.08623,1.341146 0.08635,0.892307 0.135386,1.796201 0.289203,2.676039 0.135604,0.725996 0.633836,1.267357 1.254924,1.710318 -1.088661,0.732079 -1.408838,1.778035 -1.464183,2.953389 -0.03072,0.805953 -0.04898,1.618183 -0.09192,2.430545 -0.03713,0.738151 -0.295492,0.97778 -1.040029,0.99632 -0.209162,0.006 -0.412108,0.02504 -0.645894,0.03749 v 1.740943 c 0.436877,0 0.837035,0.02467 1.236819,0 1.242805,-0.0739 1.993087,-0.676651 2.239355,-1.882726 0.104496,-0.664592 0.166335,-1.335098 0.184888,-2.005774 0.04281,-0.615343 0.03665,-1.236915 0.09797,-1.845873 0.09216,-0.953723 0.529218,-1.347193 1.482917,-1.408597 0.09252,-0.01246 0.178503,-0.03047 0.264857,-0.0612 v -1.950793 c -0.16024,-0.01863 -0.271182,-0.03677 -0.387906,-0.04318 -0.713841,-0.03072 -1.071161,-0.270542 -1.2493,-0.947603 -0.110907,-0.430492 -0.178382,-0.880068 -0.203006,-1.323029 -0.04922,-0.824506 -0.04282,-1.654768 -0.09809,-2.479274 C 23.69636,8.6293238 22.742189,7.8806509 21.285892,7.8370502 Z m -5.304498,7.0392699 v 6.41e-4 c -0.59679,-0.01863 -1.095506,0.448706 -1.113745,1.039437 0,0.03713 -1.57e-4,0.06761 0.006,0.104375 0,0.670676 0.455152,1.101917 1.144368,1.101917 0.676723,0 1.10124,-0.442828 1.10124,-1.13814 -0.006,-0.670676 -0.455285,-1.114229 -1.138104,-1.108145 z m -3.882803,6.41e-4 c -0.615331,-0.03072 -1.143933,0.448452 -1.174967,1.063795 -0.03072,0.621427 0.449068,1.150839 1.064412,1.181232 h 0.07378 c 0.60926,0.03713 1.131609,-0.430491 1.168715,-1.039448 v -0.06192 c 0.01246,-0.621427 -0.485473,-1.13127 -1.106876,-1.14374 z m 7.832453,0 c -0.627499,-0.01246 -1.150501,0.485642 -1.168728,1.113141 0,0.627486 0.504389,1.131886 1.131863,1.131886 h 0.01246 c 0.56607,0.09845 1.138478,-0.448705 1.175584,-1.106899 0.03036,-0.609272 -0.52374,-1.138128 -1.151214,-1.138128 z" />
</svg>
