<svg version="1.1" viewBox="0 0 50 50" xmlns="http://www.w3.org/2000/svg">
 <path d="m29.4 3.54a2.05 2.05 0 0 0-1.92 1.5l-11.4 38.7a2.05 2.05 0 1 0 3.93 1.16l11.4-38.7a2.05 2.05 0 0 0-2.02-2.66zm12 0a2.05 2.05 0 0 0-1.92 1.5l-11.4 38.7a2.05 2.05 0 1 0 3.93 1.16l11.4-38.7a2.05 2.05 0 0 0-2.02-2.66zm-31.7 9.98a3.21 3.21 0 0 0-3.21 3.22 3.21 3.21 0 0 0 3.21 3.21 3.21 3.21 0 0 0 3.21-3.21 3.21 3.21 0 0 0-3.21-3.22zm0 16.5a3.21 3.21 0 0 0-3.21 3.21 3.21 3.21 0 0 0 3.21 3.22 3.21 3.21 0 0 0 3.21-3.22 3.21 3.21 0 0 0-3.21-3.21z" fill="#fff" stroke="#fff" stroke-width="0"/>
</svg>
