<svg version="1.1" viewBox="0 0 50 50" xmlns="http://www.w3.org/2000/svg">
  <path
     d="M 25 0 C 11.222484 0 0 11.22249 0 25 C 0 38.77752 11.222484 50 25 50 C 38.777516 50 50 38.77752 50 25 C 50 11.22249 38.777516 -7.1054274e-15 25 0 z M 25 5 C 36.075314 5 45 13.92469 45 25 C 45 36.07532 36.075314 45 25 45 C 13.924686 45 5 36.07532 5 25 C 5 13.92469 13.924686 5 25 5 z M 24.986328 12.5 A 12.500008 12.500008 0 0 0 12.5 25 A 12.500008 12.500008 0 0 0 25 37.5 A 12.500008 12.500008 0 0 0 37.5 25 A 12.500008 12.500008 0 0 0 25 12.5 A 12.500008 12.500008 0 0 0 24.986328 12.5 z "
      fill="#fff" stroke="#fff" stroke-width="0"/>
</svg>
