<svg version="1.1" viewBox="0 0 50 50" xmlns="http://www.w3.org/2000/svg">
  <path d="m25 4.18c-3.05 0-5.95 0.644-8.68 1.93l1.29 2.89c2.41-1.13 4.82-1.61 7.39-1.61 9.8 0 17.7 7.88 17.7 17.7 0 3.64-1.14 7.16-3.21 10.1v-8.65h-3.21v12.9h12.9v-3.21h-6.5c2.11-3.35 3.29-7.21 3.29-11.1 0-11.6-9.32-20.9-20.9-20.9zm-24.1 6.27v3.21h6.6c-2.17 3.34-3.38 7.19-3.38 11.2 0 11.6 9.32 20.9 20.9 20.9 3.05 0 5.95-0.644 8.68-1.93l-1.29-2.89c-2.41 1.13-4.82 1.61-7.39 1.61-9.8 0-17.7-7.88-17.7-17.7 0-3.64 1.14-7.16 3.21-10.1v8.49h3.21v-12.9z" stroke-width="0" stroke="#fff" fill="#fff" />
</svg>
