<svg version="1.1" viewBox="0 0 50 50" xmlns="http://www.w3.org/2000/svg">
 <path d="m15.5 2.95c-2.36 0-4.3 1.94-4.3 4.3v35.5c0 2.36 1.94 4.3 4.3 4.3h19.1c2.36 0 4.3-1.94 4.3-4.3v-5.38h-3v5.38c0 0.746-0.554 1.3-1.3 1.3h-19.1c-0.746 0-1.3-0.554-1.3-1.3v-35.5c0-0.746 0.554-1.3 1.3-1.3h19.1c0.746 0 1.3 0.554 1.3 1.3v6.89h3v-6.89c0-2.36-1.94-4.3-4.3-4.3h-19.1zm12.5 14.4a1.5 1.5 0 0 0-1.2 2.4l4.18 5.6-4.63 6.24a1.5 1.5 0 0 0 1.2 2.39h2.64a1.5 1.5 0 0 0 1.21-0.605l2.76-3.73 2.76 3.73a1.5 1.5 0 0 0 1.21 0.605h2.64a1.5 1.5 0 0 0 1.21-2.39l-4.52-6.1 4.27-5.74a1.5 1.5 0 0 0-1.21-2.39h-2.64a1.5 1.5 0 0 0-1.2 0.604l-2.41 3.24-2.41-3.24a1.5 1.5 0 0 0-1.2-0.604h-2.64z" fill="#fff" stroke="#fff" stroke-width="0"/>
</svg>
