<svg version="1.1" viewBox="0 0 50 50" xmlns="http://www.w3.org/2000/svg">
 <path d="m15.5 2.95c-2.36 0-4.3 1.94-4.3 4.3v35.5c0 2.36 1.94 4.3 4.3 4.3h19.1c2.36 0 4.3-1.94 4.3-4.3v-12.3c-0.984 1.01-1.97 2.02-3 2.95v9.34c0 0.746-0.554 1.3-1.3 1.3h-19.1c-0.746 0-1.3-0.554-1.3-1.3v-35.5c0-0.746 0.554-1.3 1.3-1.3h19.1c0.746 0 1.3 0.554 1.3 1.3v3.36c0.94-0.57 1.94-1.05 3-1.43v-1.93c0-2.36-1.94-4.3-4.3-4.3h-19.1zm25.2 9.81c-1.1 0-2.19 0.413-3.02 1.24l-11.7 11.7c-0.788 0.788-1.19 1.82-1.22 2.87l-1.06 3.95a1.22 1.22 0 0 0 1.5 1.5l3.94-1.05c1.05-0.0337 2.09-0.435 2.88-1.23l11.7-11.7c1.65-1.65 1.65-4.38 0-6.04-0.827-0.827-1.92-1.24-3.02-1.24zm0 2.97c0.319 0 0.639 0.129 0.896 0.387 0.515 0.515 0.515 1.28 0 1.79l-11.4 11.4-1.79-1.79 11.4-11.4c0.258-0.258 0.577-0.387 0.896-0.387z" fill="#fff" stroke="#fff" stroke-width="0"/>
</svg>
