<svg version="1.1" viewBox="0 0 50 50" xmlns="http://www.w3.org/2000/svg">
  <path d="m 29.557402,43.887363 c 0.14827,0.14827 0.310983,0.270693 0.480611,0.378412 0.498467,0.72228 1.328247,1.196006 2.276,1.196005 H 42.69412 c 1.533395,0 2.76766,-1.234265 2.76766,-2.76766 l 0,-10.380106 c 0,-0.947753 -0.473725,-1.777533 -1.196005,-2.276 -0.107719,-0.169628 -0.230142,-0.332341 -0.378412,-0.480611 L 19.681385,5.3514252 c -1.084273,-1.084273 -2.829674,-1.084274 -3.913946,0 L 5.351425,15.767439 c -1.084274,1.084273 -1.084274,2.829674 0,3.913947 z m 2.641983,-4.354507 a 5.1855698,5.1855698 0 0 1 0,-7.333471 5.1855698,5.1855698 0 0 1 7.333471,0 5.1855698,5.1855698 0 0 1 -1e-6,7.333471 5.1855698,5.1855698 0 0 1 -7.33347,0 z" fill="#fff" stroke="#fff" stroke-width="0"/>
</svg>
